<mxfile host="app.diagrams.net" modified="2023-02-13T12:07:19.491Z" agent="5.0 (Windows NT 10.0; Win64; x64) AppleWebKit/537.36 (KHTML, like Gecko) Chrome/109.0.0.0 Safari/537.36" etag="1VqnGJJuBXWw-kW7bwaV" version="20.8.20" type="github">
  <diagram name="Página-1" id="jqLv5Ew5D4y9J0L5n7w3">
    <mxGraphModel dx="1194" dy="584" grid="1" gridSize="10" guides="1" tooltips="1" connect="1" arrows="1" fold="1" page="1" pageScale="1" pageWidth="827" pageHeight="1169" math="0" shadow="0">
      <root>
        <mxCell id="0" />
        <mxCell id="1" parent="0" />
        <mxCell id="wfVdTwNTx_s4ZtpOC-to-2" value="Aluguel" style="rhombus;whiteSpace=wrap;html=1;" vertex="1" parent="1">
          <mxGeometry x="310" y="150" width="150" height="100" as="geometry" />
        </mxCell>
        <mxCell id="wfVdTwNTx_s4ZtpOC-to-3" value="Cliente" style="rounded=0;whiteSpace=wrap;html=1;" vertex="1" parent="1">
          <mxGeometry x="60" y="179" width="130" height="45" as="geometry" />
        </mxCell>
        <mxCell id="wfVdTwNTx_s4ZtpOC-to-6" value="Produto" style="rounded=0;whiteSpace=wrap;html=1;" vertex="1" parent="1">
          <mxGeometry x="590" y="179" width="130" height="42" as="geometry" />
        </mxCell>
        <mxCell id="wfVdTwNTx_s4ZtpOC-to-8" value="" style="endArrow=classic;html=1;rounded=0;entryX=1;entryY=0.5;entryDx=0;entryDy=0;exitX=0;exitY=0.5;exitDx=0;exitDy=0;" edge="1" parent="1" source="wfVdTwNTx_s4ZtpOC-to-2" target="wfVdTwNTx_s4ZtpOC-to-3">
          <mxGeometry width="50" height="50" relative="1" as="geometry">
            <mxPoint x="210" y="250" as="sourcePoint" />
            <mxPoint x="260" y="200" as="targetPoint" />
          </mxGeometry>
        </mxCell>
        <mxCell id="wfVdTwNTx_s4ZtpOC-to-10" value="" style="endArrow=classic;html=1;rounded=0;entryX=0;entryY=0.5;entryDx=0;entryDy=0;" edge="1" parent="1" target="wfVdTwNTx_s4ZtpOC-to-6">
          <mxGeometry width="50" height="50" relative="1" as="geometry">
            <mxPoint x="460" y="200" as="sourcePoint" />
            <mxPoint x="510" y="150" as="targetPoint" />
          </mxGeometry>
        </mxCell>
        <mxCell id="wfVdTwNTx_s4ZtpOC-to-11" value="1" style="text;html=1;strokeColor=none;fillColor=none;align=center;verticalAlign=middle;whiteSpace=wrap;rounded=0;" vertex="1" parent="1">
          <mxGeometry x="230" y="170" width="60" height="30" as="geometry" />
        </mxCell>
        <mxCell id="wfVdTwNTx_s4ZtpOC-to-12" value="N" style="text;html=1;strokeColor=none;fillColor=none;align=center;verticalAlign=middle;whiteSpace=wrap;rounded=0;" vertex="1" parent="1">
          <mxGeometry x="500" y="170" width="60" height="30" as="geometry" />
        </mxCell>
        <mxCell id="wfVdTwNTx_s4ZtpOC-to-13" value="Cliente" style="rounded=0;whiteSpace=wrap;html=1;" vertex="1" parent="1">
          <mxGeometry x="65" y="290" width="120" height="30" as="geometry" />
        </mxCell>
        <mxCell id="wfVdTwNTx_s4ZtpOC-to-14" value="ID_Cliente(PK)&lt;br&gt;Nome_Cliente&lt;br&gt;Endereço_Cliente&lt;br&gt;CPF_Cliente" style="whiteSpace=wrap;html=1;aspect=fixed;" vertex="1" parent="1">
          <mxGeometry x="65" y="320" width="120" height="120" as="geometry" />
        </mxCell>
        <mxCell id="wfVdTwNTx_s4ZtpOC-to-15" value="Locaçao" style="rounded=0;whiteSpace=wrap;html=1;" vertex="1" parent="1">
          <mxGeometry x="320" y="290" width="110" height="30" as="geometry" />
        </mxCell>
        <mxCell id="wfVdTwNTx_s4ZtpOC-to-16" value="ID_Locação(PK)&lt;br&gt;ID_Cliente(FK)&lt;br&gt;Data_locação" style="whiteSpace=wrap;html=1;aspect=fixed;" vertex="1" parent="1">
          <mxGeometry x="320" y="320" width="110" height="110" as="geometry" />
        </mxCell>
        <mxCell id="wfVdTwNTx_s4ZtpOC-to-17" value="Produto" style="rounded=0;whiteSpace=wrap;html=1;" vertex="1" parent="1">
          <mxGeometry x="590" y="290" width="110" height="30" as="geometry" />
        </mxCell>
        <mxCell id="wfVdTwNTx_s4ZtpOC-to-18" value="ID_Produto(PK)&lt;br&gt;ID_Cliente(FK)&lt;br&gt;Marca_produto&lt;br&gt;Qnt_produto" style="whiteSpace=wrap;html=1;aspect=fixed;" vertex="1" parent="1">
          <mxGeometry x="590" y="320" width="110" height="110" as="geometry" />
        </mxCell>
      </root>
    </mxGraphModel>
  </diagram>
</mxfile>
